<?xml version="1.0" encoding="utf-8"?>
<!-- Generator: Adobe Illustrator 23.0.2, SVG Export Plug-In . SVG Version: 6.00 Build 0)  -->
<svg version="1.1" id="Layer_1" xmlns="http://www.w3.org/2000/svg" xmlns:xlink="http://www.w3.org/1999/xlink" x="0px" y="0px"
	 viewBox="0 0 30 30" style="enable-background:new 0 0 30 30;" xml:space="preserve">
<circle cx="26" cy="12" r="1"/>
<circle cx="15" cy="3" r="1"/>
<circle cx="4" cy="12" r="1"/>
<path d="M25,11h-3V6c0-0.6,0.4-1,1-1h1c0.6,0,1,0.4,1,1V11z"/>
<path d="M15,3v10h11l0.7-1.7l-11-9L15,3z"/>
<path d="M14.3,2.3l-11,9L4,13h11V3L14.3,2.3z"/>
<path d="M5,12v12c0,1.1,0.9,2,2,2h16c1.1,0,2-0.9,2-2V12H5z M22,23h-4v-8h4V23z"/>
</svg>
